<?xml version="1.0" encoding="utf-8"?>
<!-- Generator: Adobe Illustrator 24.1.2, SVG Export Plug-In . SVG Version: 6.00 Build 0)  -->
<svg version="1.1" id="Capa_1" xmlns="http://www.w3.org/2000/svg" xmlns:xlink="http://www.w3.org/1999/xlink" x="0px" y="0px"
	 viewBox="0 0 164 182.4" style="enable-background:new 0 0 164 182.4;" xml:space="preserve">
<style type="text/css">
	.st0{fill:#FFFFFF;}
</style>
<path class="st0" d="M150.4,70l-58-33.6L34.8,3.2c-5.6-3.2-12-4-17.6-2.4S6.4,6,3.2,11.6c-1.2,1.6-1.6,3.6-2.4,5.6
	C0.4,18.4,0.4,20,0,21.6v137.6c0,6.4,2.8,12.4,6.8,16.4c4.4,4.4,10,6.8,16.4,6.8c3.6,0,11.2-3.2,13.2-4.4l56.8-32.8h0.4l0.4-0.4
	l58.8-34c5.6-3.2,9.2-8.4,10.8-14.4c0.4-1.2,0.4-2.8,0.4-4.4C164,78.8,150.4,70,150.4,70z"/>
</svg>
